{"title":"Cyber City Oedo 808 Files 1-3 (HQ)","uid":12283020,"size":2741338601,"categoryP":"video","categoryS":"hd___movies","magnet":"?xt=urn:btih:c5fc801e1058ca6e0ba7f5cc0cf86de60037a596&amp;dn=Cyber+City+Oedo+808+Files+1-3+%28HQ%29&amp;tr=udp%3A%2F%2Ftracker.openbittorrent.com%3A80&amp;tr=udp%3A%2F%2Fopen.demonii.com%3A1337&amp;tr=udp%3A%2F%2Ftracker.coppersurfer.tk%3A6969&amp;tr=udp%3A%2F%2Fexodus.desync.com%3A6969","seeders":0,"leechers":2,"uploader":"memz5k","files":3,"time":1440439693,"description":"In the city of Oedo 2808 A.D., three Cyber criminals are given two choices, to either rot in jail or to join a special force of the Cyber Police to get possibly one more chance at freedom ever again. For each criminal apprehended, and for each successful mission done, the state will agree to reduce their sentences. Lead by Hasegawa, the new recruits: Sengoku, Gogul, and Benton will bring some hard justice to Oedo and possibly taste freedom again.\n\nVideo\nID : 1\nFormat : AVC\nFormat/Info : Advanced Video Codec\nFormat profile : High@L4\nFormat settings, CABAC : Yes\nFormat settings, ReFrames : 16 frames\nCodec ID : avc1\nCodec ID/Info : Advanced Video Coding\nDuration : 42mn 2s\nBit rate : 2 550 Kbps\nWidth : 714 pixels\nHeight : 480 pixels\nDisplay aspect ratio : 4:3\nOriginal display aspect ratio : 3:2\nFrame rate mode : Variable\nFrame rate : 23.976 fps\nMinimum frame rate : 23.810 fps\nMaximum frame rate : 24.390 fps\nColor space : YUV\nChroma subsampling : 4:2:0\nBit depth : 8 bits\nScan type : Progressive\nBits/(Pixel*Frame) : 0.310\nStream size : 767 MiB (85%)\nWriting library : x264 core 98 r1629 2e81ce1\n\n\nAudio\nID : 2\nFormat : AC-3\nFormat/Info : Audio Coding 3\nMode extension : CM (complete main)\nFormat settings, Endianness : Big\nCodec ID : ac-3\nDuration : 42mn 2s\nBit rate mode : Constant\nBit rate : 448 Kbps\nChannel(s) : 2 channels\nChannel positions : Front: L R\nSampling rate : 48.0 KHz\nBit depth : 16 bits\nCompression mode : Lossy\nStream size : 135 MiB (15%)\nLanguage : English\n\nEnjoy","torrent":{"xt":"urn:btih:c5fc801e1058ca6e0ba7f5cc0cf86de60037a596","amp;dn":"Cyber+City+Oedo+808+Files+1-3+%28HQ%29","amp;tr":["udp%3A%2F%2Ftracker.openbittorrent.com%3A80","udp%3A%2F%2Fopen.demonii.com%3A1337","udp%3A%2F%2Ftracker.coppersurfer.tk%3A6969","udp%3A%2F%2Fexodus.desync.com%3A6969"],"infoHash":"c5fc801e1058ca6e0ba7f5cc0cf86de60037a596","infoHashBuffer":{"type":"Buffer","data":[197,252,128,30,16,88,202,110,11,167,245,204,12,248,109,230,0,55,165,150]},"announce":[],"urlList":[]}}